<?xml version="1.0" encoding="UTF-8" standalone="no"?>
<!DOCTYPE svg PUBLIC "-//W3C//DTD SVG 1.1//EN" "http://www.w3.org/Graphics/SVG/1.1/DTD/svg11.dtd">
<svg width="100%" height="100%" viewBox="0 0 500 500" version="1.1" xmlns="http://www.w3.org/2000/svg" xmlns:xlink="http://www.w3.org/1999/xlink" xml:space="preserve" xmlns:serif="http://www.serif.com/" style="fill-rule:evenodd;clip-rule:evenodd;stroke-linejoin:round;stroke-miterlimit:2;">
    <g transform="matrix(7.8329,0,0,7.8329,-1717.67,-2155.13)">
        <path d="M283.123,312.305L275.956,305.639C273.123,309.417 269.928,311.305 266.373,311.305C265.595,311.305 264.817,311.222 264.039,311.055C266.428,306.833 267.623,302.25 267.623,297.305C267.623,292.972 266.65,289.139 264.706,285.805C262.761,282.472 260.164,279.903 256.914,278.097C253.664,276.292 250.15,275.389 246.373,275.389C243.65,275.389 241.039,275.889 238.539,276.889C236.039,277.889 233.817,279.361 231.873,281.305L231.873,276.389L219.289,276.389L219.289,338.722L232.289,338.722L232.289,292.472C233.4,290.639 234.886,289.25 236.748,288.305C238.609,287.361 240.623,286.889 242.789,286.889C246.234,286.889 248.998,288.097 251.081,290.514C253.164,292.93 254.206,296.083 254.206,299.972C254.206,302.194 253.817,304.25 253.039,306.139C250.317,305.028 247.956,304.472 245.956,304.472C243.067,304.472 240.761,305.319 239.039,307.014C237.317,308.708 236.456,310.778 236.456,313.222C236.456,315.722 237.359,317.889 239.164,319.722C240.97,321.555 243.484,322.472 246.706,322.472C249.484,322.472 252.289,321.722 255.123,320.222C258.345,321.667 261.511,322.389 264.623,322.389C268.234,322.389 271.678,321.528 274.956,319.805C278.234,318.083 280.956,315.583 283.123,312.305Z" style="fill:rgb(253,94,83);fill-rule:nonzero;"/>
    </g>
</svg>
