<?xml version="1.0" encoding="UTF-8" standalone="no"?>
<!DOCTYPE svg PUBLIC "-//W3C//DTD SVG 1.1//EN" "http://www.w3.org/Graphics/SVG/1.1/DTD/svg11.dtd">
<svg width="100%" height="100%" viewBox="0 0 376 81" version="1.1" xmlns="http://www.w3.org/2000/svg" xmlns:xlink="http://www.w3.org/1999/xlink" xml:space="preserve" xmlns:serif="http://www.serif.com/" style="fill-rule:evenodd;clip-rule:evenodd;stroke-linejoin:round;stroke-miterlimit:2;">
    <g transform="matrix(1,0,0,1,-52.6225,-257.972)">
        <path d="M95.039,312.222L87.706,305.555C86.484,307.444 85.025,308.889 83.331,309.889C81.636,310.889 79.873,311.389 78.039,311.389C76.039,311.389 74.345,310.805 72.956,309.639C71.567,308.472 70.873,306.667 70.873,304.222L70.873,286.555L79.123,286.555L79.123,276.389L70.873,276.389L70.873,266.722L57.873,266.722L57.873,276.389L53.039,276.389L53.039,286.555L57.873,286.555L57.873,306.222C57.873,311.722 59.567,315.805 62.956,318.472C66.345,321.139 70.539,322.472 75.539,322.472C79.65,322.472 83.442,321.569 86.914,319.764C90.386,317.958 93.095,315.444 95.039,312.222Z" style="fill:rgb(253,94,83);fill-rule:nonzero;"/>
        <path d="M151.456,312.222L144.289,305.639C142.9,307.472 141.442,308.861 139.914,309.805C138.386,310.75 136.9,311.222 135.456,311.222C134.011,311.222 132.873,310.764 132.039,309.847C131.206,308.93 130.789,307.583 130.789,305.805L130.789,276.389L117.789,276.389L118.039,280.472C116.317,278.861 114.275,277.611 111.914,276.722C109.553,275.833 107.067,275.389 104.456,275.389C100.511,275.389 96.9,276.305 93.623,278.139C90.345,279.972 87.72,282.667 85.748,286.222C83.775,289.778 82.789,294 82.789,298.889C82.789,303.444 83.706,307.514 85.539,311.097C87.373,314.68 89.886,317.472 93.081,319.472C96.275,321.472 99.873,322.472 103.873,322.472C106.928,322.472 109.803,321.847 112.498,320.597C115.192,319.347 117.428,317.611 119.206,315.389C120.373,317.722 122.136,319.486 124.498,320.68C126.859,321.875 129.539,322.472 132.539,322.472C136.261,322.472 139.831,321.555 143.248,319.722C146.664,317.889 149.4,315.389 151.456,312.222ZM113.456,309.514C111.623,310.486 109.567,310.972 107.289,310.972C103.9,310.972 101.206,309.903 99.206,307.764C97.206,305.625 96.206,302.667 96.206,298.889C96.206,295.055 97.248,292.097 99.331,290.014C101.414,287.93 104.039,286.889 107.206,286.889C109.317,286.889 111.317,287.333 113.206,288.222C115.095,289.111 116.623,290.389 117.789,292.055L117.789,305.472C116.734,307.194 115.289,308.542 113.456,309.514Z" style="fill:rgb(253,94,83);fill-rule:nonzero;"/>
        <path d="M176.456,312.222L169.289,305.639C167.9,307.472 166.442,308.861 164.914,309.805C163.386,310.75 161.9,311.222 160.456,311.222C159.011,311.222 157.873,310.764 157.039,309.847C156.206,308.93 155.789,307.583 155.789,305.805L155.789,259.222L142.789,259.222L142.789,308.889C142.789,313.278 144.178,316.639 146.956,318.972C149.734,321.305 153.261,322.472 157.539,322.472C161.261,322.472 164.817,321.555 168.206,319.722C171.595,317.889 174.345,315.389 176.456,312.222Z" style="fill:rgb(253,94,83);fill-rule:nonzero;"/>
        <path d="M227.956,312.222L220.623,305.555C217.789,309.444 214.595,311.389 211.039,311.389C208.65,311.389 205.678,310.389 202.123,308.389L195.373,304.389C199.817,302.944 203.386,300.805 206.081,297.972C208.775,295.139 210.123,291.833 210.123,288.055C210.123,284 208.72,280.903 205.914,278.764C203.109,276.625 199.65,275.555 195.539,275.555C192.928,275.555 190.317,276.014 187.706,276.93C185.095,277.847 182.789,279.167 180.789,280.889L180.789,259.222L167.789,259.222L167.789,321.472L180.789,321.472L180.789,306.055L193.789,316.139C198.956,320.305 204.317,322.389 209.873,322.389C213.373,322.389 216.65,321.514 219.706,319.764C222.761,318.014 225.511,315.5 227.956,312.222ZM185.748,287.347C187.831,286.319 189.845,285.805 191.789,285.805C193.4,285.805 194.748,286.18 195.831,286.93C196.914,287.68 197.456,288.75 197.456,290.139C197.456,292.361 196.136,294.18 193.498,295.597C190.859,297.014 187.678,297.722 183.956,297.722C182.567,297.722 181.511,297.667 180.789,297.555L180.789,291.639C182.011,289.805 183.664,288.375 185.748,287.347Z" style="fill:rgb(253,94,83);fill-rule:nonzero;"/>
        <path d="M283.123,312.305L275.956,305.639C273.123,309.417 269.928,311.305 266.373,311.305C265.595,311.305 264.817,311.222 264.039,311.055C266.428,306.833 267.623,302.25 267.623,297.305C267.623,292.972 266.65,289.139 264.706,285.805C262.761,282.472 260.164,279.903 256.914,278.097C253.664,276.292 250.15,275.389 246.373,275.389C243.65,275.389 241.039,275.889 238.539,276.889C236.039,277.889 233.817,279.361 231.873,281.305L231.873,276.389L219.289,276.389L219.289,338.722L232.289,338.722L232.289,292.472C233.4,290.639 234.886,289.25 236.748,288.305C238.609,287.361 240.623,286.889 242.789,286.889C246.234,286.889 248.998,288.097 251.081,290.514C253.164,292.93 254.206,296.083 254.206,299.972C254.206,302.194 253.817,304.25 253.039,306.139C250.317,305.028 247.956,304.472 245.956,304.472C243.067,304.472 240.761,305.319 239.039,307.014C237.317,308.708 236.456,310.778 236.456,313.222C236.456,315.722 237.359,317.889 239.164,319.722C240.97,321.555 243.484,322.472 246.706,322.472C249.484,322.472 252.289,321.722 255.123,320.222C258.345,321.667 261.511,322.389 264.623,322.389C268.234,322.389 271.678,321.528 274.956,319.805C278.234,318.083 280.956,315.583 283.123,312.305Z" style="fill:rgb(253,94,83);fill-rule:nonzero;"/>
        <path d="M341.789,312.222L334.623,305.639C333.234,307.472 331.775,308.861 330.248,309.805C328.72,310.75 327.234,311.222 325.789,311.222C324.345,311.222 323.206,310.764 322.373,309.847C321.539,308.93 321.123,307.583 321.123,305.805L321.123,276.389L308.123,276.389L308.373,280.472C306.65,278.861 304.609,277.611 302.248,276.722C299.886,275.833 297.4,275.389 294.789,275.389C290.845,275.389 287.234,276.305 283.956,278.139C280.678,279.972 278.053,282.667 276.081,286.222C274.109,289.778 273.123,294 273.123,298.889C273.123,303.444 274.039,307.514 275.873,311.097C277.706,314.68 280.22,317.472 283.414,319.472C286.609,321.472 290.206,322.472 294.206,322.472C297.261,322.472 300.136,321.847 302.831,320.597C305.525,319.347 307.761,317.611 309.539,315.389C310.706,317.722 312.47,319.486 314.831,320.68C317.192,321.875 319.873,322.472 322.873,322.472C326.595,322.472 330.164,321.555 333.581,319.722C336.998,317.889 339.734,315.389 341.789,312.222ZM303.789,309.514C301.956,310.486 299.9,310.972 297.623,310.972C294.234,310.972 291.539,309.903 289.539,307.764C287.539,305.625 286.539,302.667 286.539,298.889C286.539,295.055 287.581,292.097 289.664,290.014C291.748,287.93 294.373,286.889 297.539,286.889C299.65,286.889 301.65,287.333 303.539,288.222C305.428,289.111 306.956,290.389 308.123,292.055L308.123,305.472C307.067,307.194 305.623,308.542 303.789,309.514Z" style="fill:rgb(253,94,83);fill-rule:nonzero;"/>
        <path d="M371.123,312.222L363.789,305.555C362.567,307.444 361.109,308.889 359.414,309.889C357.72,310.889 355.956,311.389 354.123,311.389C352.123,311.389 350.428,310.805 349.039,309.639C347.65,308.472 346.956,306.667 346.956,304.222L346.956,286.555L355.206,286.555L355.206,276.389L346.956,276.389L346.956,266.722L333.956,266.722L333.956,276.389L329.123,276.389L329.123,286.555L333.956,286.555L333.956,306.222C333.956,311.722 335.65,315.805 339.039,318.472C342.428,321.139 346.623,322.472 351.623,322.472C355.734,322.472 359.525,321.569 362.998,319.764C366.47,317.958 369.178,315.444 371.123,312.222Z" style="fill:rgb(253,94,83);fill-rule:nonzero;"/>
        <path d="M428.206,312.222L421.039,305.639C419.65,307.472 418.192,308.861 416.664,309.805C415.136,310.75 413.65,311.222 412.206,311.222C410.761,311.222 409.623,310.764 408.789,309.847C407.956,308.93 407.539,307.583 407.539,305.805L407.539,296.055C407.539,292.611 406.761,289.68 405.206,287.264C403.65,284.847 401.595,283.028 399.039,281.805C396.484,280.583 393.706,279.972 390.706,279.972C387.817,279.972 384.998,280.542 382.248,281.68C379.498,282.819 377.15,284.472 375.206,286.639L375.206,284.055C379.539,281.555 382.886,279.042 385.248,276.514C387.609,273.986 388.789,271.25 388.789,268.305C388.789,265.361 387.636,262.944 385.331,261.055C383.025,259.167 379.9,258.222 375.956,258.222C371.789,258.222 368.456,259.264 365.956,261.347C363.456,263.43 362.206,266.361 362.206,270.139L362.206,321.472L375.206,321.472L375.206,297.222C376.095,295.278 377.498,293.736 379.414,292.597C381.331,291.458 383.345,290.889 385.456,290.889C388.011,290.889 390.164,291.625 391.914,293.097C393.664,294.569 394.539,296.694 394.539,299.472L394.539,308.889C394.539,313.278 395.928,316.639 398.706,318.972C401.484,321.305 405.011,322.472 409.289,322.472C413.011,322.472 416.581,321.555 419.998,319.722C423.414,317.889 426.15,315.389 428.206,312.222ZM375.789,268.18C376.178,267.764 376.734,267.555 377.456,267.555C378.9,267.555 379.623,268.305 379.623,269.805C379.623,271.417 378.15,273.139 375.206,274.972L375.206,269.972C375.206,269.194 375.4,268.597 375.789,268.18Z" style="fill:rgb(253,94,83);fill-rule:nonzero;"/>
    </g>
</svg>
